<svg width="24" height="24" viewBox="0 0 24 24" fill="none" xmlns="http://www.w3.org/2000/svg">
<path d="M16 17L16.21 17.21C16.579 17.579 16.763 17.763 16.986 17.75C17.209 17.738 17.372 17.535 17.698 17.127L19 15.5M16.171 7.91V9.5M16.171 7.91C16.171 7.156 16.805 6.545 17.586 6.545C18.366 6.545 19 7.156 19 7.909V9.5M16.171 7.91V5.181C16.171 4.428 15.538 3.817 14.757 3.817C13.976 3.817 13.342 4.427 13.342 5.181M13.342 5.181V9.5M13.342 5.181V3.364C13.342 2.61 12.71 2 11.928 2C11.146 2 10.514 2.61 10.514 3.364V6.09M10.514 6.09C10.514 5.337 9.87995 4.726 9.09895 4.726C8.31895 4.726 7.68495 5.336 7.68495 6.09V12.637C7.68495 13.053 7.15195 13.25 6.86195 12.942L4.57195 10.503C4.37727 10.2774 4.11633 10.119 3.82633 10.0504C3.53633 9.98179 3.23208 10.0065 2.95695 10.121C1.94895 10.538 1.71195 12.009 2.36695 12.857C3.48895 14.309 4.63695 16.29 5.56495 18.037C6.82495 20.41 9.30995 22 12.072 22M10.514 6.09V9.5M13 15.454V15.84C13 17.042 13 17.643 13.148 18.193C13.3329 18.8752 13.6809 19.5022 14.162 20.02C14.552 20.442 15.068 20.77 16.099 21.427C16.56 21.721 16.791 21.868 17.037 21.937C17.34 22.021 17.661 22.021 17.964 21.937C18.209 21.868 18.4399 21.721 18.9009 21.427C19.9319 20.77 20.4479 20.442 20.8379 20.02C21.319 19.5022 21.667 18.8752 21.8519 18.193C21.9999 17.643 22 17.043 22 15.84V15.454C22 14.706 22 14.332 21.858 14.016C21.7688 13.8209 21.6436 13.6445 21.489 13.496C21.236 13.256 20.877 13.124 20.159 12.861L18.6849 12.321C18.0989 12.107 17.806 12 17.5 12C17.194 12 16.901 12.107 16.315 12.322L14.841 12.862C14.123 13.124 13.764 13.255 13.511 13.496C13.3559 13.6444 13.2304 13.8209 13.141 14.016C13 14.332 13 14.706 13 15.454Z" stroke="black" stroke-width="1.5" stroke-linecap="round" stroke-linejoin="round"/>
</svg>
